<svg xmlns="http://www.w3.org/2000/svg" viewBox="0 0 32 32" fill="none">
  <rect width="32" height="32" rx="6" fill="#0b0c1d"/>
  <!-- Shield shape -->
  <path d="M16 3 L27 8 L27 17 C27 23 22 27 16 29 C10 27 5 23 5 17 L5 8 Z" fill="none" stroke="#00e6ff" stroke-width="1.4" stroke-linejoin="round"/>
  <path d="M16 5 L25 9.5 L25 17 C25 22 21 25.5 16 27.5 C11 25.5 7 22 7 17 L7 9.5 Z" fill="#00e6ff" opacity="0.1"/>
  <!-- Upward arrow / raise indicator -->
  <path d="M16 10 L20 16 L17.5 16 L17.5 22 L14.5 22 L14.5 16 L12 16 Z" fill="#00e6ff" opacity="0.9"/>
  <!-- Glow accent -->
  <path d="M16 10 L20 16 L17.5 16 L17.5 22 L14.5 22 L14.5 16 L12 16 Z" fill="#7b61ff" opacity="0.3"/>
</svg>
